<svg width="56" height="47" viewBox="0 0 56 47" fill="none" xmlns="http://www.w3.org/2000/svg">
<path fill-rule="evenodd" clip-rule="evenodd" d="M5.33335 12.3333C4.96516 12.3333 4.66669 12.6317 4.66669 12.9999V42.3333C4.66669 42.7014 4.96516 42.9999 5.33335 42.9999H50.6667C51.0349 42.9999 51.3334 42.7014 51.3334 42.3333V12.9999C51.3334 12.6317 51.0349 12.3333 50.6667 12.3333H5.33335ZM0.666687 12.9999C0.666687 10.4226 2.75602 8.33325 5.33335 8.33325H50.6667C53.244 8.33325 55.3334 10.4226 55.3334 12.9999V42.3333C55.3334 44.9106 53.244 46.9999 50.6667 46.9999H5.33335C2.75602 46.9999 0.666687 44.9106 0.666687 42.3333V12.9999Z" fill="url(#paint0_linear_213_476)"/>
<path fill-rule="evenodd" clip-rule="evenodd" d="M27.3333 19.6667C27.3333 18.5622 28.2288 17.6667 29.3333 17.6667H53.3333C54.4379 17.6667 55.3333 18.5622 55.3333 19.6667V34.3334C55.3333 35.438 54.4379 36.3334 53.3333 36.3334H29.3333C28.2288 36.3334 27.3333 35.438 27.3333 34.3334V19.6667ZM31.3333 21.6667V32.3334H51.3333V21.6667H31.3333Z" fill="url(#paint1_linear_213_476)"/>
<path fill-rule="evenodd" clip-rule="evenodd" d="M53.3333 15C54.4379 15 55.3333 15.8954 55.3333 17V37C55.3333 38.1046 54.4379 39 53.3333 39C52.2288 39 51.3333 38.1046 51.3333 37V17C51.3333 15.8954 52.2288 15 53.3333 15Z" fill="url(#paint2_linear_213_476)"/>
<path fill-rule="evenodd" clip-rule="evenodd" d="M6.26957 3.27867C7.55568 1.57239 9.65263 0.333252 12.6667 0.333252H32C33.3574 0.333252 35.5056 0.766569 37.3548 2.28939C39.2891 3.88238 40.6667 6.47933 40.6667 10.3333C40.6667 11.4378 39.7713 12.3333 38.6667 12.3333C37.5621 12.3333 36.6667 11.4378 36.6667 10.3333C36.6667 7.52051 35.7109 6.11746 34.8119 5.37711C33.8277 4.5666 32.6426 4.33325 32 4.33325H12.6667C10.8807 4.33325 9.9777 5.00456 9.46381 5.68633C8.87731 6.46444 8.66669 7.44852 8.66669 8.06459V10.3333C8.66669 11.4378 7.77126 12.3333 6.66669 12.3333C5.56212 12.3333 4.66669 11.4378 4.66669 10.3333V8.06459C4.66669 6.77021 5.05607 4.88862 6.26957 3.27867Z" fill="url(#paint3_linear_213_476)"/>
<path d="M40.6667 29C41.7712 29 42.6667 28.1046 42.6667 27C42.6667 25.8954 41.7712 25 40.6667 25C39.5621 25 38.6667 25.8954 38.6667 27C38.6667 28.1046 39.5621 29 40.6667 29Z" fill="url(#paint4_linear_213_476)"/>
<defs>
<linearGradient id="paint0_linear_213_476" x1="0.666687" y1="8.33325" x2="55.9914" y2="9.2989" gradientUnits="userSpaceOnUse">
<stop stop-color="#73E0A9"/>
<stop offset="1" stop-color="#5B68DF"/>
</linearGradient>
<linearGradient id="paint1_linear_213_476" x1="27.3333" y1="17.6667" x2="55.6693" y2="18.1915" gradientUnits="userSpaceOnUse">
<stop stop-color="#73E0A9"/>
<stop offset="1" stop-color="#5B68DF"/>
</linearGradient>
<linearGradient id="paint2_linear_213_476" x1="51.3333" y1="15" x2="55.3827" y2="15.0083" gradientUnits="userSpaceOnUse">
<stop stop-color="#73E0A9"/>
<stop offset="1" stop-color="#5B68DF"/>
</linearGradient>
<linearGradient id="paint3_linear_213_476" x1="4.66669" y1="0.333252" x2="41.0612" y2="1.6812" gradientUnits="userSpaceOnUse">
<stop stop-color="#73E0A9"/>
<stop offset="1" stop-color="#5B68DF"/>
</linearGradient>
<linearGradient id="paint4_linear_213_476" x1="38.6667" y1="25" x2="42.7154" y2="25.05" gradientUnits="userSpaceOnUse">
<stop stop-color="#73E0A9"/>
<stop offset="1" stop-color="#5B68DF"/>
</linearGradient>
</defs>
</svg>
