<svg width="9" height="8" viewBox="0 0 9 8" fill="none" xmlns="http://www.w3.org/2000/svg">
<path fill-rule="evenodd" clip-rule="evenodd" d="M5.21385 0.938669C5.00912 0.78834 4.76175 0.707275 4.50776 0.707275C4.25376 0.707275 4.0064 0.78834 3.80167 0.938669L3.38826 1.2416C3.32017 1.29164 3.24101 1.32449 3.1575 1.33738L2.65009 1.41534C2.39925 1.4539 2.16724 1.57145 1.98778 1.75091C1.80833 1.93036 1.69078 2.16237 1.65221 2.41322L1.57425 2.92107C1.56137 3.00458 1.52851 3.08374 1.47847 3.15183L1.17555 3.56524C1.02522 3.76997 0.944153 4.01733 0.944153 4.27133C0.944153 4.52532 1.02522 4.77269 1.17555 4.97742L1.47847 5.39082C1.52881 5.45898 1.56133 5.53783 1.57425 5.62158L1.65221 6.12854C1.69078 6.37939 1.80833 6.6114 1.98778 6.79086C2.16724 6.97031 2.39925 7.08786 2.65009 7.12643L3.15705 7.20439C3.24036 7.2173 3.31966 7.24983 3.38781 7.30016L3.80122 7.60309C4.00595 7.75342 4.25332 7.83449 4.50731 7.83449C4.76131 7.83449 5.00867 7.75342 5.2134 7.60309L5.62681 7.30016C5.69483 7.25 5.77402 7.21713 5.85757 7.20439L6.36453 7.12643C6.61552 7.08793 6.84768 6.97035 7.02723 6.7908C7.20678 6.61124 7.32436 6.37909 7.36286 6.1281L7.44082 5.62114C7.45374 5.53783 7.48626 5.45854 7.5366 5.39038L7.83952 4.97697C7.98985 4.77224 8.07092 4.52488 8.07092 4.27088C8.07092 4.01689 7.98985 3.76952 7.83952 3.56479L7.5366 3.15138C7.48657 3.08329 7.45372 3.00413 7.44082 2.92062L7.3633 2.41322C7.32474 2.16237 7.20719 1.93036 7.02773 1.75091C6.84828 1.57145 6.61627 1.4539 6.36542 1.41534L5.85846 1.33738C5.77496 1.32448 5.6958 1.29162 5.6277 1.2416L5.21385 0.938669ZM4.19726 1.47681C4.38213 1.34094 4.63383 1.34094 4.81826 1.47681L5.23167 1.77974C5.3867 1.89378 5.56667 1.96818 5.75734 1.99758L6.26341 2.0751C6.4906 2.10984 6.66835 2.28804 6.7031 2.51479L6.78061 3.0213C6.81001 3.21152 6.88441 3.3915 6.99845 3.54697L7.30138 3.95993C7.43725 4.14481 7.43725 4.39651 7.30138 4.58094L6.99845 4.99435C6.8845 5.14943 6.80976 5.32979 6.78061 5.52001L6.7031 6.02608C6.68624 6.13667 6.63449 6.23897 6.55539 6.31807C6.47629 6.39716 6.37399 6.44892 6.26341 6.46578L5.75689 6.54329C5.56666 6.57244 5.38631 6.64718 5.23122 6.76113L4.81826 7.06406C4.63338 7.19993 4.38169 7.19993 4.19726 7.06406L3.78385 6.76113C3.62876 6.64718 3.44841 6.57244 3.25818 6.54329L2.75211 6.46578C2.64153 6.44892 2.53923 6.39716 2.46013 6.31807C2.38103 6.23897 2.32928 6.13667 2.31242 6.02608L2.2349 5.51957C2.20575 5.32934 2.13101 5.14899 2.01706 4.9939L1.71414 4.58094C1.64805 4.4909 1.61242 4.38212 1.61242 4.27044C1.61242 4.15875 1.64805 4.04997 1.71414 3.95993L2.01706 3.54653C2.13111 3.3915 2.2055 3.21152 2.2349 3.02086L2.31242 2.51479C2.34717 2.28759 2.52536 2.10984 2.75211 2.0751L3.25862 1.99758C3.44885 1.96843 3.62921 1.89369 3.78429 1.77974L4.19726 1.47681ZM5.96894 3.72739C6.02796 3.66406 6.06009 3.58028 6.05856 3.49373C6.05703 3.40717 6.02197 3.32458 5.96075 3.26337C5.89954 3.20215 5.81695 3.16709 5.7304 3.16556C5.64384 3.16403 5.56007 3.19616 5.49673 3.25518L4.06228 4.68963L3.51879 4.14615C3.45545 4.08713 3.37168 4.055 3.28512 4.05653C3.19856 4.05805 3.11598 4.09312 3.05476 4.15433C2.99355 4.21555 2.95848 4.29813 2.95695 4.38469C2.95543 4.47125 2.98756 4.55502 3.04657 4.61836L3.82617 5.39795C3.88882 5.46052 3.97374 5.49567 4.06228 5.49567C4.15082 5.49567 4.23574 5.46052 4.29838 5.39795L5.96894 3.72739Z" fill="#00ACE8"/>
</svg>
