<svg width="22" height="16" viewBox="0 0 22 16" fill="none" xmlns="http://www.w3.org/2000/svg">
<path d="M4.5317 1.2072L4.49436 0.45813L4.49436 0.45813L4.5317 1.2072ZM17.4684 1.20725L17.5057 0.45818L17.5057 0.458179L17.4684 1.20725ZM20.3087 3.9536L21.0561 3.89113L21.0561 3.89112L20.3087 3.9536ZM20.304 12.0261L21.0513 12.0892V12.0892L20.304 12.0261ZM17.5104 14.7675L17.4614 14.019L17.4614 14.019L17.5104 14.7675ZM4.4898 14.7675L4.44085 15.516L4.44086 15.516L4.4898 14.7675ZM1.69632 12.0275L2.44364 11.9641L1.69632 12.0275ZM1.6916 3.9522L0.944237 3.88937L0.944237 3.88938L1.6916 3.9522ZM4.56904 1.95627C7.33634 1.81833 9.47761 1.75 10.9989 1.75V0.25C9.44049 0.25 7.27027 0.319766 4.49436 0.45813L4.56904 1.95627ZM10.9989 1.75C12.5203 1.75 14.6624 1.81838 17.4311 1.95632L17.5057 0.458179C14.7284 0.319816 12.5575 0.25 10.9989 0.25V1.75ZM17.4311 1.95632C18.5569 2.01242 19.4674 2.89285 19.5613 4.01608L21.0561 3.89112C20.8996 2.01905 19.382 0.551679 17.5057 0.45818L17.4311 1.95632ZM19.5613 4.01607C19.6869 5.51839 19.7489 6.83288 19.7489 7.9619H21.2489C21.2489 6.78052 21.1841 5.42281 21.0561 3.89113L19.5613 4.01607ZM19.7489 7.9619C19.7489 9.10482 19.6854 10.4377 19.5567 11.963L21.0513 12.0892C21.1825 10.5343 21.2489 9.15777 21.2489 7.9619H19.7489ZM19.5567 11.963C19.4631 13.0723 18.5723 13.9464 17.4614 14.019L17.5593 15.5159C19.4108 15.3948 20.8953 13.938 21.0513 12.0892L19.5567 11.963ZM17.4614 14.019C15.1038 14.1732 12.9499 14.25 10.9989 14.25V15.75C12.9884 15.75 15.1755 15.6718 17.5593 15.5159L17.4614 14.019ZM10.9989 14.25C9.04813 14.25 6.89504 14.1732 4.53874 14.0191L4.44086 15.516C6.82337 15.6718 9.00967 15.75 10.9989 15.75V14.25ZM4.53875 14.0191C3.42826 13.9465 2.53769 13.0729 2.44364 11.9641L0.949005 12.0909C1.10577 13.939 2.59003 15.3949 4.44085 15.516L4.53875 14.0191ZM2.44364 11.9641C2.31325 10.4269 2.2489 9.09378 2.2489 7.9619H0.748901C0.748901 9.14762 0.816166 10.5249 0.949005 12.0909L2.44364 11.9641ZM2.2489 7.9619C2.2489 6.84367 2.31171 5.52894 2.43897 4.01502L0.944237 3.88938C0.814564 5.43206 0.748901 6.79043 0.748901 7.9619H2.2489ZM2.43897 4.01502C2.53335 2.89224 3.44371 2.01237 4.56904 1.95627L4.49436 0.45813C2.61879 0.55163 1.10154 2.01806 0.944237 3.88937L2.43897 4.01502Z" fill="white"/>
</svg>
